<svg width="60" height="60" viewBox="0 0 60 60" fill="none" xmlns="http://www.w3.org/2000/svg">
<path d="M30 18.7501C29.8656 18.7499 29.732 18.728 29.6045 18.6854L7.10451 11.1854C6.85053 11.1006 6.63047 10.9366 6.47673 10.7174C6.32299 10.4982 6.2437 10.2354 6.25053 9.96775C6.25736 9.70009 6.34995 9.4417 6.51467 9.23062C6.67939 9.01955 6.90753 8.86693 7.16551 8.79526L29.6655 2.54526C29.8843 2.48426 30.1157 2.48426 30.3345 2.54526L52.8345 8.79526C53.0925 8.86693 53.3206 9.01955 53.4853 9.23062C53.6501 9.4417 53.7427 9.70009 53.7495 9.96775C53.7563 10.2354 53.677 10.4982 53.5233 10.7174C53.3695 10.9366 53.1495 11.1006 52.8955 11.1854L30.3955 18.6854C30.268 18.728 30.1345 18.7499 30 18.7501ZM11.7791 10.1088L30 16.183L48.2214 10.1088L30 5.04776L11.7791 10.1088Z" fill="white"/>
<path d="M52.8345 8.79526L30.3345 2.54526C30.1157 2.48426 29.8843 2.48426 29.6655 2.54526L7.16552 8.79526C6.90749 8.8671 6.67933 9.01988 6.51464 9.23111C6.34994 9.44233 6.2574 9.70085 6.25064 9.96861C6.24388 10.2364 6.32326 10.4992 6.47708 10.7185C6.63091 10.9378 6.85107 11.1019 7.10514 11.1866L29.6045 18.6854C29.8611 18.7717 30.1389 18.7717 30.3955 18.6854L52.8943 11.1866C53.1488 11.1023 53.3694 10.9385 53.5237 10.7192C53.6779 10.4999 53.7576 10.2368 53.7509 9.9688C53.7442 9.70078 53.6515 9.44202 53.4865 9.23071C53.3215 9.0194 53.0929 8.86674 52.8345 8.79526Z" fill="white"/>
<path d="M45 16.4624V31.0624C44.9994 31.3485 44.9012 31.6258 44.7217 31.8486C44.5421 32.0713 44.292 32.2261 44.0125 32.2874C39.4049 33.2584 34.7089 33.7485 30 33.7499C25.2911 33.7485 20.5951 33.2584 15.9875 32.2874C15.708 32.2261 15.4579 32.0713 15.2783 31.8486C15.0988 31.6258 15.0006 31.3485 15 31.0624V16.4624L28.8125 21.0624C29.5844 21.3124 30.4156 21.3124 31.1875 21.0624L45 16.4624Z" fill="white"/>
<path d="M30 37.9688C28.8566 37.9688 27.7388 38.3078 26.7881 38.9431C25.8374 39.5783 25.0964 40.4812 24.6588 41.5376C24.2213 42.594 24.1068 43.7564 24.3298 44.8779C24.5529 45.9993 25.1035 47.0294 25.912 47.838C26.7206 48.6465 27.7507 49.1971 28.8721 49.4202C29.9936 49.6432 31.156 49.5287 32.2124 49.0912C33.2688 48.6536 34.1717 47.9126 34.8069 46.9619C35.4422 46.0112 35.7813 44.8934 35.7813 43.75C35.7814 42.9908 35.632 42.2389 35.3415 41.5374C35.051 40.836 34.6252 40.1986 34.0883 39.6617C33.5514 39.1248 32.914 38.699 32.2126 38.4085C31.5111 38.118 30.7592 37.9686 30 37.9688Z" fill="white"/>
<path d="M35 50.3374V57.4999C35.0016 57.7265 34.9406 57.9491 34.8237 58.1432C34.7068 58.3373 34.5385 58.4954 34.3375 58.5999C34.1398 58.7081 33.9162 58.7595 33.6912 58.7484C33.4661 58.7374 33.2486 58.6644 33.0625 58.5374L30 56.4999L26.9375 58.5374C26.7522 58.6663 26.5344 58.7404 26.3089 58.7515C26.0835 58.7625 25.8595 58.71 25.6625 58.5999C25.4614 58.4954 25.2932 58.3373 25.1763 58.1432C25.0594 57.9491 24.9984 57.7265 25 57.4999V50.3499C25.1375 50.4624 25.2875 50.5624 25.4375 50.6624C26.8692 51.604 28.5578 52.0783 30.2704 52.0201C31.983 51.9619 33.6354 51.374 35 50.3374Z" fill="white"/>
<path d="M24.6625 50.0753C23.1125 49.9878 21.575 49.9503 20.0375 50.0003C16.7521 50.1016 13.4836 50.5117 10.275 51.2253C10.184 51.2398 10.0922 51.2482 10 51.2503C9.83558 51.2514 9.67255 51.2198 9.52042 51.1573C9.36828 51.0949 9.23006 51.0028 9.11377 50.8866C8.99749 50.7703 8.90545 50.632 8.84301 50.4799C8.78057 50.3278 8.74896 50.1647 8.75003 50.0003V37.5003C8.75132 37.3139 8.7934 37.13 8.8733 36.9616C8.95319 36.7931 9.06898 36.6442 9.21253 36.5253C9.36079 36.4089 9.53267 36.3262 9.71617 36.283C9.89968 36.2398 10.0904 36.2372 10.275 36.2753C13.4836 36.9889 16.7521 37.399 20.0375 37.5003C21.575 37.5503 23.125 37.5253 24.6625 37.4253C23.7422 38.2024 23.0026 39.1709 22.4952 40.2634C21.9879 41.3558 21.725 42.5458 21.725 43.7503C21.725 44.9548 21.9879 46.1448 22.4952 47.2372C23.0026 48.3296 23.7422 49.2982 24.6625 50.0753Z" fill="white"/>
<path d="M10 37.5H6.25C5.58719 37.5008 4.95175 37.7644 4.48307 38.2331C4.0144 38.7017 3.75076 39.3372 3.75 40V47.5C3.75076 48.1628 4.0144 48.7983 4.48307 49.2669C4.95175 49.7356 5.58719 49.9992 6.25 50H10C10.3315 50 10.6495 49.8683 10.8839 49.6339C11.1183 49.3995 11.25 49.0815 11.25 48.75V38.75C11.25 38.4185 11.1183 38.1005 10.8839 37.8661C10.6495 37.6317 10.3315 37.5 10 37.5Z" fill="white"/>
<path d="M51.25 37.5003V50.0003C51.2511 50.1647 51.2195 50.3278 51.157 50.4799C51.0946 50.632 51.0026 50.7703 50.8863 50.8866C50.77 51.0028 50.6318 51.0949 50.4796 51.1573C50.3275 51.2198 50.1645 51.2514 50 51.2503C49.9079 51.2482 49.816 51.2398 49.725 51.2253C46.5165 50.5117 43.2479 50.1016 39.9625 50.0003C38.425 49.9503 36.875 49.9878 35.325 50.0753C36.2488 49.3004 36.9916 48.3326 37.5012 47.2399C38.0109 46.1471 38.275 44.956 38.275 43.7503C38.275 42.5446 38.0109 41.3535 37.5012 40.2607C36.9916 39.168 36.2488 38.2002 35.325 37.4253C36.875 37.5128 38.425 37.5503 39.9625 37.5003C43.2479 37.399 46.5165 36.9889 49.725 36.2753C49.9096 36.2372 50.1004 36.2398 50.2839 36.283C50.4674 36.3262 50.6393 36.4089 50.7875 36.5253C50.9311 36.6442 51.0468 36.7931 51.1267 36.9616C51.2066 37.13 51.2487 37.3139 51.25 37.5003Z" fill="white"/>
<path d="M53.75 37.5H50C49.6685 37.5 49.3505 37.6317 49.1161 37.8661C48.8817 38.1005 48.75 38.4185 48.75 38.75V48.75C48.75 49.0815 48.8817 49.3995 49.1161 49.6339C49.3505 49.8683 49.6685 50 50 50H53.75C54.4128 49.9991 55.0481 49.7354 55.5168 49.2668C55.9854 48.7981 56.2491 48.1628 56.25 47.5V40C56.2491 39.3372 55.9854 38.7019 55.5168 38.2332C55.0481 37.7646 54.4128 37.5009 53.75 37.5Z" fill="white"/>
<path d="M48.75 10.2124C48.4185 10.2124 48.1005 10.3441 47.8661 10.5785C47.6317 10.8129 47.5 11.1309 47.5 11.4624V21.2499C47.5 21.5814 47.6317 21.8994 47.8661 22.1338C48.1005 22.3682 48.4185 22.4999 48.75 22.4999C49.0815 22.4999 49.3995 22.3682 49.6339 22.1338C49.8683 21.8994 50 21.5814 50 21.2499V11.4624C50 11.1309 49.8683 10.8129 49.6339 10.5785C49.3995 10.3441 49.0815 10.2124 48.75 10.2124Z" fill="white"/>
</svg>
