<svg width="60" height="60" viewBox="0 0 60 60" fill="none" xmlns="http://www.w3.org/2000/svg">
<path d="M39.5807 27.5H12.9193C12.7424 28.2984 12.3881 29.0468 11.8828 29.6898C11.3774 30.3328 10.734 30.8539 10 31.2146V46.2854C10.734 46.6461 11.3774 47.1672 11.8828 47.8102C12.3881 48.4532 12.7424 49.2016 12.9193 50H39.5807C39.7577 49.2016 40.1119 48.4532 40.6172 47.8102C41.1226 47.1672 41.766 46.6461 42.5 46.2854V31.2146C41.766 30.8539 41.1226 30.3328 40.6172 29.6898C40.1119 29.0468 39.7577 28.2984 39.5807 27.5ZM34.0088 47.0935C33.8927 47.2096 33.7549 47.3017 33.6033 47.3645C33.4516 47.4274 33.2891 47.4597 33.125 47.4597C32.9608 47.4597 32.7983 47.4274 32.6466 47.3645C32.495 47.3017 32.3572 47.2096 32.2412 47.0935L31.8145 46.6668C30.8086 47.5912 29.526 48.1582 28.1653 48.28C27.9811 48.2803 27.7973 48.2643 27.616 48.2324C25.979 47.9394 25.5292 46.3659 25.2313 45.3247C25.1474 44.9297 25.002 44.5503 24.8004 44.2004C24.5245 44.2199 24.0546 45.1123 23.7744 45.6457C23.1982 46.7395 22.4103 48.2361 20.7807 48.252C20.1645 48.2136 19.567 48.0259 19.0395 47.7053C18.512 47.3846 18.0704 46.9405 17.7527 46.4112C17.6536 46.2802 17.5813 46.131 17.5399 45.9721C17.4985 45.8132 17.4888 45.6476 17.5114 45.485C17.534 45.3223 17.5885 45.1657 17.6716 45.0241C17.7548 44.8825 17.8651 44.7587 17.9961 44.6597C18.1272 44.5607 18.2764 44.4886 18.4354 44.4473C18.5944 44.4061 18.7599 44.3965 18.9225 44.4193C19.0852 44.4421 19.2417 44.4967 19.3832 44.58C19.5248 44.6633 19.6485 44.7737 19.7473 44.9048C20.2204 45.5298 20.5853 45.752 20.7556 45.752H20.7575C21.0872 45.3706 21.3583 44.9423 21.5619 44.4812C22.1753 43.3154 23.0158 41.72 24.8078 41.72C26.8006 41.72 27.323 43.5461 27.6349 44.6375C27.7188 45.0416 27.8692 45.4289 28.0799 45.7837C28.1794 45.8005 28.7733 45.8143 30.0315 44.8837L29.7412 44.5935C29.5093 44.3586 29.3797 44.0415 29.3807 43.7114C29.3817 43.3812 29.5133 43.0649 29.7468 42.8315C29.9802 42.5981 30.2965 42.4665 30.6266 42.4654C30.9567 42.4644 31.2738 42.594 31.5088 42.8259L34.0088 45.3259C34.1249 45.442 34.217 45.5797 34.2798 45.7314C34.3426 45.883 34.375 46.0456 34.375 46.2097C34.375 46.3739 34.3426 46.5364 34.2798 46.688C34.217 46.8397 34.1249 46.9775 34.0088 47.0935ZM37.5 38.75H15C14.6685 38.75 14.3505 38.6183 14.1161 38.3839C13.8817 38.1495 13.75 37.8315 13.75 37.5C13.75 37.1685 13.8817 36.8505 14.1161 36.6161C14.3505 36.3817 14.6685 36.25 15 36.25H37.5C37.8315 36.25 38.1495 36.3817 38.3839 36.6161C38.6183 36.8505 38.75 37.1685 38.75 37.5C38.75 37.8315 38.6183 38.1495 38.3839 38.3839C38.1495 38.6183 37.8315 38.75 37.5 38.75ZM37.5 34.375H15C14.6685 34.375 14.3505 34.2433 14.1161 34.0089C13.8817 33.7745 13.75 33.4565 13.75 33.125C13.75 32.7935 13.8817 32.4755 14.1161 32.2411C14.3505 32.0067 14.6685 31.875 15 31.875H37.5C37.8315 31.875 38.1495 32.0067 38.3839 32.2411C38.6183 32.4755 38.75 32.7935 38.75 33.125C38.75 33.4565 38.6183 33.7745 38.3839 34.0089C38.1495 34.2433 37.8315 34.375 37.5 34.375Z" fill="white"/>
<path d="M45 21.25H7.5C6.50577 21.2511 5.55257 21.6465 4.84955 22.3495C4.14652 23.0526 3.75109 24.0058 3.75 25V52.5C3.75109 53.4942 4.14652 54.4474 4.84955 55.1505C5.55257 55.8535 6.50577 56.2489 7.5 56.25H45C45.9942 56.2489 46.9474 55.8535 47.6505 55.1505C48.3535 54.4474 48.7489 53.4942 48.75 52.5V25C48.7489 24.0058 48.3535 23.0526 47.6505 22.3495C46.9474 21.6465 45.9942 21.2511 45 21.25ZM45 47.1484C45.0001 47.4238 44.9092 47.6915 44.7414 47.9098C44.5736 48.1281 44.3384 48.2849 44.0723 48.3557C43.4482 48.5367 42.9013 48.9184 42.516 49.4416C42.1307 49.9648 41.9286 50.6004 41.9409 51.25C41.941 51.4142 41.9087 51.5767 41.8459 51.7284C41.783 51.8801 41.691 52.0179 41.5749 52.134C41.4588 52.2501 41.321 52.3421 41.1693 52.4049C41.0176 52.4677 40.8551 52.5 40.6909 52.5H11.8091C11.6449 52.5 11.4824 52.4677 11.3307 52.4049C11.179 52.3421 11.0412 52.2501 10.9251 52.134C10.809 52.0179 10.717 51.8801 10.6542 51.7284C10.5913 51.5767 10.559 51.4142 10.5591 51.25C10.5714 50.6004 10.3693 49.9648 9.98403 49.4416C9.59875 48.9184 9.05177 48.5367 8.42774 48.3557C8.16164 48.2849 7.92641 48.1281 7.75863 47.9098C7.59084 47.6915 7.49992 47.4238 7.5 47.1484V30.3516C7.49992 30.0762 7.59085 29.8085 7.75863 29.5902C7.92641 29.3719 8.16164 29.2151 8.42774 29.1443C9.05177 28.9633 9.59875 28.5816 9.98403 28.0584C10.3693 27.5352 10.5714 26.8996 10.5591 26.25C10.559 26.0858 10.5913 25.9233 10.6542 25.7716C10.717 25.6199 10.809 25.4821 10.9251 25.366C11.0412 25.2499 11.179 25.1579 11.3307 25.0951C11.4824 25.0323 11.6449 25 11.8091 25H40.6909C40.8551 25 41.0176 25.0323 41.1693 25.0951C41.321 25.1579 41.4588 25.2499 41.5749 25.366C41.691 25.4821 41.783 25.6199 41.8459 25.7716C41.9087 25.9233 41.941 26.0858 41.9409 26.25C41.9286 26.8996 42.1307 27.5352 42.516 28.0584C42.9013 28.5816 43.4482 28.9633 44.0723 29.1443C44.3384 29.2151 44.5736 29.3719 44.7414 29.5902C44.9092 29.8085 45.0001 30.0762 45 30.3516V47.1484Z" fill="white"/>
<path d="M51.7737 11.3645L35.5237 3.86453C35.3596 3.78876 35.1809 3.74951 35 3.74951C34.8192 3.74951 34.6405 3.78876 34.4764 3.86453L18.2264 11.3645C18.0276 11.4562 17.8564 11.5985 17.73 11.7771C17.6035 11.9557 17.5261 12.1644 17.5056 12.3823C17.485 12.6002 17.5221 12.8196 17.613 13.0187C17.704 13.2178 17.8456 13.3895 18.0237 13.5166L27.1001 18.7498H42.8999L51.9763 13.5166C52.1544 13.3895 52.2961 13.2178 52.387 13.0187C52.4779 12.8196 52.515 12.6002 52.4945 12.3823C52.474 12.1644 52.3966 11.9557 52.2701 11.7771C52.1436 11.5985 51.9725 11.4562 51.7737 11.3645Z" fill="white"/>
<path d="M53.75 21.25C53.5858 21.2501 53.4233 21.2178 53.2716 21.1549C53.1199 21.0921 52.9821 21.0001 52.866 20.884C52.7499 20.7679 52.6579 20.6301 52.5951 20.4784C52.5323 20.3267 52.5 20.1642 52.5 20V15.2954C52.5006 15.0631 52.4363 14.8353 52.3142 14.6377C52.1921 14.4401 52.0171 14.2806 51.8091 14.1773L50.6909 13.6182C50.5437 13.545 50.4123 13.4435 50.3044 13.3195C50.1964 13.1954 50.114 13.0513 50.0618 12.8954C50.0096 12.7395 49.9887 12.5748 50.0003 12.4108C50.0118 12.2468 50.0556 12.0867 50.1292 11.9396C50.2027 11.7925 50.3045 11.6614 50.4288 11.5538C50.5531 11.4461 50.6974 11.364 50.8534 11.3122C51.0095 11.2604 51.1742 11.2399 51.3382 11.2518C51.5022 11.2638 51.6622 11.308 51.8091 11.3819L52.9272 11.9409C53.5516 12.2506 54.0767 12.729 54.4431 13.3219C54.8094 13.9148 55.0024 14.5985 55 15.2954V20C55 20.1642 54.9677 20.3267 54.9049 20.4784C54.8421 20.6301 54.7501 20.7679 54.634 20.884C54.5179 21.0001 54.3801 21.0921 54.2284 21.1549C54.0767 21.2178 53.9142 21.2501 53.75 21.25Z" fill="white"/>
<path d="M55 22.5C54.8358 22.5002 54.6732 22.4679 54.5216 22.405C54.3699 22.3422 54.2322 22.25 54.1163 22.1337L53.75 21.7675L53.3838 22.1337C53.1486 22.3646 52.8319 22.4933 52.5024 22.4918C52.1728 22.4903 51.8572 22.3588 51.6242 22.1257C51.3912 21.8927 51.2597 21.5771 51.2582 21.2476C51.2567 20.9181 51.3854 20.6013 51.6163 20.3662L52.8663 19.1162C52.9823 19.0001 53.1201 18.908 53.2717 18.8452C53.4234 18.7823 53.5859 18.75 53.75 18.75C53.9142 18.75 54.0767 18.7823 54.2284 18.8452C54.38 18.908 54.5178 19.0001 54.6338 19.1162L55.8838 20.3662C56.0586 20.541 56.1776 20.7637 56.2258 21.0062C56.274 21.2486 56.2493 21.4999 56.1547 21.7283C56.0601 21.9567 55.8999 22.1519 55.6944 22.2893C55.4888 22.4266 55.2472 22.4999 55 22.5Z" fill="white"/>
<path d="M42.5 16.25H27.5C26.8096 16.25 26.25 16.8096 26.25 17.5V21.25C26.25 21.9404 26.8096 22.5 27.5 22.5H42.5C43.1904 22.5 43.75 21.9404 43.75 21.25V17.5C43.75 16.8096 43.1904 16.25 42.5 16.25Z" fill="white"/>
</svg>
