<svg width="164" height="68" viewBox="0 0 164 68" fill="none" xmlns="http://www.w3.org/2000/svg">
<g opacity="0.3">
<path d="M4 66C4 67.1046 3.10457 68 2 68C0.89543 68 0 67.1046 0 66C0 64.8954 0.89543 64 2 64C3.10457 64 4 64.8954 4 66Z" fill="#FF0000"/>
<path d="M20 66C20 67.1046 19.1046 68 18 68C16.8954 68 16 67.1046 16 66C16 64.8954 16.8954 64 18 64C19.1046 64 20 64.8954 20 66Z" fill="#FF0000"/>
<path d="M36 66C36 67.1046 35.1046 68 34 68C32.8954 68 32 67.1046 32 66C32 64.8954 32.8954 64 34 64C35.1046 64 36 64.8954 36 66Z" fill="#FF0000"/>
<path d="M52 66C52 67.1046 51.1046 68 50 68C48.8954 68 48 67.1046 48 66C48 64.8954 48.8954 64 50 64C51.1046 64 52 64.8954 52 66Z" fill="#FF0000"/>
<path d="M68 66C68 67.1046 67.1046 68 66 68C64.8954 68 64 67.1046 64 66C64 64.8954 64.8954 64 66 64C67.1046 64 68 64.8954 68 66Z" fill="#FF0000"/>
<path d="M84 66C84 67.1046 83.1046 68 82 68C80.8954 68 80 67.1046 80 66C80 64.8954 80.8954 64 82 64C83.1046 64 84 64.8954 84 66Z" fill="#FF0000"/>
<path d="M100 66C100 67.1046 99.1046 68 98 68C96.8954 68 96 67.1046 96 66C96 64.8954 96.8954 64 98 64C99.1046 64 100 64.8954 100 66Z" fill="#FF0000"/>
<path d="M116 66C116 67.1046 115.105 68 114 68C112.895 68 112 67.1046 112 66C112 64.8954 112.895 64 114 64C115.105 64 116 64.8954 116 66Z" fill="#FF0000"/>
<path d="M132 66C132 67.1046 131.105 68 130 68C128.895 68 128 67.1046 128 66C128 64.8954 128.895 64 130 64C131.105 64 132 64.8954 132 66Z" fill="#FF0000"/>
<path d="M148 66C148 67.1046 147.105 68 146 68C144.895 68 144 67.1046 144 66C144 64.8954 144.895 64 146 64C147.105 64 148 64.8954 148 66Z" fill="#FF0000"/>
<path d="M164 66C164 67.1046 163.105 68 162 68C160.895 68 160 67.1046 160 66C160 64.8954 160.895 64 162 64C163.105 64 164 64.8954 164 66Z" fill="#FF0000"/>
<path d="M4 50C4 51.1046 3.10457 52 2 52C0.89543 52 0 51.1046 0 50C0 48.8954 0.89543 48 2 48C3.10457 48 4 48.8954 4 50Z" fill="#FF0000"/>
<path d="M20 50C20 51.1046 19.1046 52 18 52C16.8954 52 16 51.1046 16 50C16 48.8954 16.8954 48 18 48C19.1046 48 20 48.8954 20 50Z" fill="#FF0000"/>
<path d="M36 50C36 51.1046 35.1046 52 34 52C32.8954 52 32 51.1046 32 50C32 48.8954 32.8954 48 34 48C35.1046 48 36 48.8954 36 50Z" fill="#FF0000"/>
<path d="M52 50C52 51.1046 51.1046 52 50 52C48.8954 52 48 51.1046 48 50C48 48.8954 48.8954 48 50 48C51.1046 48 52 48.8954 52 50Z" fill="#FF0000"/>
<path d="M68 50C68 51.1046 67.1046 52 66 52C64.8954 52 64 51.1046 64 50C64 48.8954 64.8954 48 66 48C67.1046 48 68 48.8954 68 50Z" fill="#FF0000"/>
<path d="M84 50C84 51.1046 83.1046 52 82 52C80.8954 52 80 51.1046 80 50C80 48.8954 80.8954 48 82 48C83.1046 48 84 48.8954 84 50Z" fill="#FF0000"/>
<path d="M100 50C100 51.1046 99.1046 52 98 52C96.8954 52 96 51.1046 96 50C96 48.8954 96.8954 48 98 48C99.1046 48 100 48.8954 100 50Z" fill="#FF0000"/>
<path d="M116 50C116 51.1046 115.105 52 114 52C112.895 52 112 51.1046 112 50C112 48.8954 112.895 48 114 48C115.105 48 116 48.8954 116 50Z" fill="#FF0000"/>
<path d="M132 50C132 51.1046 131.105 52 130 52C128.895 52 128 51.1046 128 50C128 48.8954 128.895 48 130 48C131.105 48 132 48.8954 132 50Z" fill="#FF0000"/>
<path d="M148 50C148 51.1046 147.105 52 146 52C144.895 52 144 51.1046 144 50C144 48.8954 144.895 48 146 48C147.105 48 148 48.8954 148 50Z" fill="#FF0000"/>
<path d="M164 50C164 51.1046 163.105 52 162 52C160.895 52 160 51.1046 160 50C160 48.8954 160.895 48 162 48C163.105 48 164 48.8954 164 50Z" fill="#FF0000"/>
<path d="M4 34C4 35.1046 3.10457 36 2 36C0.89543 36 0 35.1046 0 34C0 32.8954 0.89543 32 2 32C3.10457 32 4 32.8954 4 34Z" fill="#FF0000"/>
<path d="M20 34C20 35.1046 19.1046 36 18 36C16.8954 36 16 35.1046 16 34C16 32.8954 16.8954 32 18 32C19.1046 32 20 32.8954 20 34Z" fill="#FF0000"/>
<path d="M36 34C36 35.1046 35.1046 36 34 36C32.8954 36 32 35.1046 32 34C32 32.8954 32.8954 32 34 32C35.1046 32 36 32.8954 36 34Z" fill="#FF0000"/>
<path d="M52 34C52 35.1046 51.1046 36 50 36C48.8954 36 48 35.1046 48 34C48 32.8954 48.8954 32 50 32C51.1046 32 52 32.8954 52 34Z" fill="#FF0000"/>
<path d="M68 34C68 35.1046 67.1046 36 66 36C64.8954 36 64 35.1046 64 34C64 32.8954 64.8954 32 66 32C67.1046 32 68 32.8954 68 34Z" fill="#FF0000"/>
<path d="M84 34C84 35.1046 83.1046 36 82 36C80.8954 36 80 35.1046 80 34C80 32.8954 80.8954 32 82 32C83.1046 32 84 32.8954 84 34Z" fill="#FF0000"/>
<path d="M100 34C100 35.1046 99.1046 36 98 36C96.8954 36 96 35.1046 96 34C96 32.8954 96.8954 32 98 32C99.1046 32 100 32.8954 100 34Z" fill="#FF0000"/>
<path d="M116 34C116 35.1046 115.105 36 114 36C112.895 36 112 35.1046 112 34C112 32.8954 112.895 32 114 32C115.105 32 116 32.8954 116 34Z" fill="#FF0000"/>
<path d="M132 34C132 35.1046 131.105 36 130 36C128.895 36 128 35.1046 128 34C128 32.8954 128.895 32 130 32C131.105 32 132 32.8954 132 34Z" fill="#FF0000"/>
<path d="M148 34C148 35.1046 147.105 36 146 36C144.895 36 144 35.1046 144 34C144 32.8954 144.895 32 146 32C147.105 32 148 32.8954 148 34Z" fill="#FF0000"/>
<path d="M164 34C164 35.1046 163.105 36 162 36C160.895 36 160 35.1046 160 34C160 32.8954 160.895 32 162 32C163.105 32 164 32.8954 164 34Z" fill="#FF0000"/>
<path d="M4 18C4 19.1046 3.10457 20 2 20C0.89543 20 0 19.1046 0 18C0 16.8954 0.89543 16 2 16C3.10457 16 4 16.8954 4 18Z" fill="#FF0000"/>
<path d="M20 18C20 19.1046 19.1046 20 18 20C16.8954 20 16 19.1046 16 18C16 16.8954 16.8954 16 18 16C19.1046 16 20 16.8954 20 18Z" fill="#FF0000"/>
<path d="M36 18C36 19.1046 35.1046 20 34 20C32.8954 20 32 19.1046 32 18C32 16.8954 32.8954 16 34 16C35.1046 16 36 16.8954 36 18Z" fill="#FF0000"/>
<path d="M52 18C52 19.1046 51.1046 20 50 20C48.8954 20 48 19.1046 48 18C48 16.8954 48.8954 16 50 16C51.1046 16 52 16.8954 52 18Z" fill="#FF0000"/>
<path d="M68 18C68 19.1046 67.1046 20 66 20C64.8954 20 64 19.1046 64 18C64 16.8954 64.8954 16 66 16C67.1046 16 68 16.8954 68 18Z" fill="#FF0000"/>
<path d="M84 18C84 19.1046 83.1046 20 82 20C80.8954 20 80 19.1046 80 18C80 16.8954 80.8954 16 82 16C83.1046 16 84 16.8954 84 18Z" fill="#FF0000"/>
<path d="M100 18C100 19.1046 99.1046 20 98 20C96.8954 20 96 19.1046 96 18C96 16.8954 96.8954 16 98 16C99.1046 16 100 16.8954 100 18Z" fill="#FF0000"/>
<path d="M116 18C116 19.1046 115.105 20 114 20C112.895 20 112 19.1046 112 18C112 16.8954 112.895 16 114 16C115.105 16 116 16.8954 116 18Z" fill="#FF0000"/>
<path d="M132 18C132 19.1046 131.105 20 130 20C128.895 20 128 19.1046 128 18C128 16.8954 128.895 16 130 16C131.105 16 132 16.8954 132 18Z" fill="#FF0000"/>
<path d="M148 18C148 19.1046 147.105 20 146 20C144.895 20 144 19.1046 144 18C144 16.8954 144.895 16 146 16C147.105 16 148 16.8954 148 18Z" fill="#FF0000"/>
<path d="M164 18C164 19.1046 163.105 20 162 20C160.895 20 160 19.1046 160 18C160 16.8954 160.895 16 162 16C163.105 16 164 16.8954 164 18Z" fill="#FF0000"/>
<path d="M4 2C4 3.10457 3.10457 4 2 4C0.89543 4 0 3.10457 0 2C0 0.89543 0.89543 0 2 0C3.10457 0 4 0.89543 4 2Z" fill="#FF0000"/>
<path d="M20 2C20 3.10457 19.1046 4 18 4C16.8954 4 16 3.10457 16 2C16 0.89543 16.8954 0 18 0C19.1046 0 20 0.89543 20 2Z" fill="#FF0000"/>
<path d="M36 2C36 3.10457 35.1046 4 34 4C32.8954 4 32 3.10457 32 2C32 0.89543 32.8954 0 34 0C35.1046 0 36 0.89543 36 2Z" fill="#FF0000"/>
<path d="M52 2C52 3.10457 51.1046 4 50 4C48.8954 4 48 3.10457 48 2C48 0.89543 48.8954 0 50 0C51.1046 0 52 0.89543 52 2Z" fill="#FF0000"/>
<path d="M68 2C68 3.10457 67.1046 4 66 4C64.8954 4 64 3.10457 64 2C64 0.89543 64.8954 0 66 0C67.1046 0 68 0.89543 68 2Z" fill="#FF0000"/>
<path d="M84 2C84 3.10457 83.1046 4 82 4C80.8954 4 80 3.10457 80 2C80 0.89543 80.8954 0 82 0C83.1046 0 84 0.89543 84 2Z" fill="#FF0000"/>
<path d="M100 2C100 3.10457 99.1046 4 98 4C96.8954 4 96 3.10457 96 2C96 0.89543 96.8954 0 98 0C99.1046 0 100 0.89543 100 2Z" fill="#FF0000"/>
<path d="M116 2C116 3.10457 115.105 4 114 4C112.895 4 112 3.10457 112 2C112 0.89543 112.895 0 114 0C115.105 0 116 0.89543 116 2Z" fill="#FF0000"/>
<path d="M132 2C132 3.10457 131.105 4 130 4C128.895 4 128 3.10457 128 2C128 0.89543 128.895 0 130 0C131.105 0 132 0.89543 132 2Z" fill="#FF0000"/>
<path d="M148 2C148 3.10457 147.105 4 146 4C144.895 4 144 3.10457 144 2C144 0.89543 144.895 0 146 0C147.105 0 148 0.89543 148 2Z" fill="#FF0000"/>
<path d="M164 2C164 3.10457 163.105 4 162 4C160.895 4 160 3.10457 160 2C160 0.89543 160.895 0 162 0C163.105 0 164 0.89543 164 2Z" fill="#FF0000"/>
</g>
</svg>
