<svg width="78" height="78" viewBox="0 0 78 78" fill="none" xmlns="http://www.w3.org/2000/svg">
<rect width="78" height="78" rx="10" fill="#BB1621"/>
<g clip-path="url(#clip0_100_104)">
<path d="M25.3363 47.6596C25.3289 47.6621 25.3217 47.6649 25.3144 47.6675C23.4898 48.3484 22.0605 50.4073 22.0605 52.3547V59.7111C22.0605 60.423 22.6377 61.0001 23.3496 61.0001H37.7105V51.5469L31.3983 45.5215L25.3363 47.6596Z" fill="white"/>
<path d="M52.6851 47.6674C52.6778 47.6648 52.6705 47.662 52.6632 47.6595L46.6013 45.5215L40.2891 51.5469V61.0001H54.6498C55.3617 61.0001 55.9389 60.423 55.9389 59.7111V52.3547C55.9389 50.4072 54.5097 48.3483 52.6851 47.6674Z" fill="white"/>
<path d="M44.9133 41.2295C43.1907 42.2876 41.1653 42.8987 38.9996 42.8987C36.8338 42.8987 34.8086 42.2877 33.0859 41.2296V43.5677L38.9996 49.2127L44.9133 43.5679V41.2295Z" fill="white"/>
<path d="M30.2461 31.5671C30.2461 36.394 34.1729 40.3208 38.9999 40.3208C43.8268 40.3208 47.7537 36.394 47.7537 31.5671V27.8857H30.2461V31.5671Z" fill="white"/>
<path d="M26.3789 19.5781H30.2464V25.3076H47.7541V19.5781H50.3327V31.3515C50.3327 32.0634 50.9099 32.6406 51.6218 32.6406C52.3337 32.6406 52.9108 32.0634 52.9108 31.3515V18.2891C52.9108 17.5772 52.3337 17 51.6218 17H26.3789C25.667 17 25.0898 17.5772 25.0898 18.2891C25.0898 19.001 25.667 19.5781 26.3789 19.5781Z" fill="white"/>
</g>
<defs>
<clipPath id="clip0_100_104">
<rect width="44" height="44" fill="white" transform="translate(17 17)"/>
</clipPath>
</defs>
</svg>
