<svg width="78" height="78" viewBox="0 0 78 78" fill="none" xmlns="http://www.w3.org/2000/svg">
<rect width="78" height="78" rx="10" fill="#BB1621"/>
<path d="M17.7251 46.958H15.626L13.6611 56.4049C13.4104 57.6076 14.8145 58.3889 16.6757 58.3889C18.5369 58.3889 19.9405 57.6084 19.6909 56.4049L17.7251 46.958Z" fill="white"/>
<path d="M18.2184 44.4968C18.2184 45.3176 17.5296 45.9872 16.6728 45.9872C15.8216 45.9872 15.1272 45.3176 15.1272 44.4968C15.1272 43.6706 15.8216 43.001 16.6728 43.001C17.5296 43.001 18.2184 43.6706 18.2184 44.4968Z" fill="white"/>
<path d="M65.1141 28.3808L39.7303 19.7453C39.2065 19.5667 38.7951 19.5667 38.2716 19.7453L12.8858 28.3808C12.5637 28.4901 12.4 28.7135 12.4 29.0428V31.3817C12.4 31.7113 12.5637 31.9353 12.8858 32.0446L39 40.9285L65.1142 32.0446C65.4363 31.9344 65.6 31.7118 65.6 31.382V29.0431C65.6 28.7135 65.4362 28.4901 65.1141 28.3808Z" fill="white"/>
<path d="M38.9995 43.0376L38.3133 42.8038L22.7262 37.501V42.8488C22.7262 51.1688 28.2142 54.9182 38.9993 54.9182C49.784 54.9182 55.2715 51.1688 55.2715 42.8488V37.501L39.6853 42.8038L38.9995 43.0376Z" fill="white"/>
<path d="M17.7068 35.7935L15.6431 35.0918V42.1892H17.7068V35.7935Z" fill="white"/>
</svg>
