<svg width="78" height="78" viewBox="0 0 78 78" fill="none" xmlns="http://www.w3.org/2000/svg">
<rect width="78" height="78" rx="10" fill="#BB1621"/>
<g clip-path="url(#clip0_100_89)">
<path d="M53.6855 30.5275C53.7633 32.6243 56.7725 32.6227 56.8495 30.5275V24.0049L53.6855 25.1613V30.5275Z" fill="white"/>
<path d="M22.189 21.0155L38.4511 26.9635C38.802 27.0918 39.1867 27.0918 39.5377 26.9637L55.8107 21.0158C57.187 20.5143 57.1865 18.5452 55.8108 18.044L39.5432 12.0963C39.1924 11.9679 38.8075 11.9679 38.4567 12.0963L22.1892 18.044C20.8131 18.5454 20.8136 20.5144 22.189 21.0155Z" fill="white"/>
<path d="M28.0987 46.5118C28.0987 43.5528 25.6914 41.1455 22.7325 41.1455C15.6231 41.4153 15.6252 51.6093 22.7326 51.878C25.6914 51.878 28.0987 49.4707 28.0987 46.5118Z" fill="white"/>
<path d="M60.6339 46.5118C60.6339 43.5528 58.2266 41.1455 55.2676 41.1455C48.1583 41.4153 48.1603 51.6093 55.2677 51.878C58.2266 51.878 60.6339 49.4707 60.6339 46.5118Z" fill="white"/>
<path d="M33.6337 46.5118C33.6337 49.4707 36.0411 51.878 39 51.878C46.1093 51.6082 46.1074 41.4142 38.9999 41.1455C36.0411 41.1455 33.6337 43.5528 33.6337 46.5118Z" fill="white"/>
<path d="M55.2675 51.8779C53.1488 51.8779 51.1715 52.4952 49.506 53.5592C51.6113 55.9926 52.8857 59.1561 52.8857 62.6103V65.9995H64.418C65.2917 65.9995 66 65.2911 66 64.4174V62.6103C66 56.6925 61.1855 51.8779 55.2675 51.8779Z" fill="white"/>
<path d="M38.9101 51.8779C32.9485 51.8779 28.0984 56.6925 28.0984 62.6104V65.9995H49.7218V62.6103C49.7217 56.6925 44.8716 51.8779 38.9101 51.8779Z" fill="white"/>
<path d="M22.7325 51.8779C16.8145 51.8779 12 56.6925 12 62.6103V64.4174C12 65.2911 12.7083 65.9995 13.582 65.9995H24.9344V62.6103C24.9344 59.1216 26.2344 55.9293 28.3775 53.4863C26.7365 52.4674 24.8021 51.8779 22.7325 51.8779Z" fill="white"/>
<path d="M49.0547 32.5122V26.8535L40.6239 29.935C39.5794 30.3194 38.4069 30.3194 37.3631 29.934L28.9454 26.8553V32.5139C28.9454 33.1782 29.3603 33.7716 29.984 33.9997L38.4513 37.0964C38.8021 37.2247 39.1869 37.2247 39.5377 37.0965L48.0157 33.9982C48.6396 33.7702 49.0547 33.1766 49.0547 32.5122Z" fill="white"/>
</g>
<defs>
<clipPath id="clip0_100_89">
<rect width="54" height="54" fill="white" transform="translate(12 12)"/>
</clipPath>
</defs>
</svg>
