<svg width="170" height="56" viewBox="0 0 170 56" fill="none" xmlns="http://www.w3.org/2000/svg">
<path d="M25.209 56C11.3094 56 0 45.1267 0 31.759V0H50.4371V31.7551C50.4371 45.1191 39.1239 55.9923 25.2205 55.9923" fill="white"/>
<path d="M1.73315 1.7334V31.7554C1.73315 44.1858 12.243 54.2633 25.209 54.2633C38.175 54.2633 48.6887 44.1896 48.6887 31.7554V1.7334H1.73315Z" fill="white"/>
<path d="M19.1334 1.7334V19.1375L1.73315 1.7372L19.1334 1.7334Z" fill="#575756"/>
<path d="M1.73315 31.7554C1.73315 44.1858 12.243 54.2633 25.209 54.2633C38.175 54.2633 48.6887 44.1896 48.6887 31.7554V1.7334H25.2167V33.829L1.73315 10.3302V31.7554Z" fill="#BB1621"/>
<path d="M75.3285 22.9559C75.1006 23.5273 74.7612 24.0475 74.3299 24.4862C73.891 24.9201 73.371 25.2633 72.7996 25.4963C71.5711 25.9849 70.2022 25.9849 68.9736 25.4963C68.4017 25.2642 67.8815 24.9209 67.4433 24.4862C67.0095 24.0496 66.6697 23.5288 66.4447 22.9559C66.2002 22.3361 66.078 21.6747 66.0851 21.0085V12.668H68.0363V20.4805C68.0257 20.9337 68.0552 21.3869 68.1243 21.8349C68.1803 22.1439 68.2877 22.4413 68.4418 22.7148C68.6748 23.129 69.023 23.4666 69.4442 23.6866C69.8838 23.9153 70.372 24.0347 70.8675 24.0347C71.363 24.0347 71.8512 23.9153 72.2907 23.6866C72.7155 23.469 73.0669 23.131 73.3008 22.7148C73.4578 22.4422 73.5665 22.1445 73.6221 21.8349C73.6893 21.3867 73.7187 20.9336 73.7101 20.4805V12.668H75.6881V21.0429C75.6934 21.709 75.5713 22.37 75.3285 22.9903" fill="#052A45"/>
<path d="M81.5189 16.5592V25.6304H79.5562V11.7959L88.9985 21.6668V12.6682H90.9612V26.4262L81.5189 16.5592Z" fill="#052A45"/>
<path d="M96.8111 12.668H94.8484V25.6302H96.8111V12.668Z" fill="#052A45"/>
<path d="M104.876 26.602L99.1985 12.668H101.337L104.914 21.6474L108.545 12.668H110.688L104.876 26.602Z" fill="#052A45"/>
<path d="M113.094 25.6302V12.668H120.249V14.5159H115.057V17.6264H120.092V19.4705H115.057V23.7823H120.249V25.6302H113.094Z" fill="#052A45"/>
<path d="M129.58 25.6337L125.899 20.3272H125.551V25.6337H123.589V12.6677H125.884C126.567 12.6512 127.25 12.7116 127.92 12.8475C128.412 12.9517 128.879 13.1491 129.297 13.429C129.775 13.7651 130.161 14.2148 130.422 14.7375C130.691 15.2712 130.83 15.8613 130.827 16.4592C130.831 16.9009 130.762 17.3403 130.624 17.76C130.497 18.1503 130.304 18.5164 130.054 18.8427C129.803 19.1617 129.497 19.4337 129.152 19.6462C128.791 19.8673 128.395 20.024 127.981 20.1091L131.971 25.6337H129.58ZM128.93 16.5013C128.954 16.1023 128.845 15.7064 128.62 15.3764C128.416 15.1042 128.136 14.898 127.816 14.7834C127.466 14.6543 127.099 14.5794 126.726 14.5615C126.343 14.5347 125.938 14.5194 125.551 14.5194V18.6208C125.915 18.6208 126.294 18.6208 126.699 18.5634C127.077 18.5285 127.447 18.4356 127.797 18.288C128.12 18.1533 128.401 17.9355 128.612 17.6567C128.841 17.3195 128.953 16.916 128.93 16.5089" fill="#052A45"/>
<path d="M141.972 21.7082C141.978 22.2757 141.872 22.8387 141.659 23.3648C141.467 23.8594 141.177 24.3098 140.805 24.6886C140.435 25.0644 139.992 25.3623 139.505 25.5647C138.987 25.7783 138.431 25.8862 137.871 25.8823C136.833 25.9283 135.816 25.5735 135.032 24.8913C134.26 24.1356 133.779 23.1317 133.674 22.0564L135.656 21.6279C135.689 22.2921 135.92 22.9314 136.318 23.4643C136.51 23.6634 136.743 23.8177 137.002 23.9163C137.261 24.0148 137.538 24.0551 137.814 24.0343C138.107 24.0494 138.401 24.0042 138.677 23.9015C138.952 23.7989 139.204 23.641 139.417 23.4375C139.619 23.2184 139.776 22.961 139.878 22.6805C139.98 22.3999 140.025 22.1019 140.01 21.8038C140.024 21.3797 139.87 20.9673 139.581 20.6561C139.271 20.3324 138.911 20.0611 138.514 19.8526C138.085 19.6307 137.626 19.4165 137.133 19.206C136.653 19.0046 136.192 18.7613 135.755 18.4791C135.337 18.209 134.974 17.8625 134.684 17.4576C134.382 16.9958 134.233 16.4514 134.255 15.9004C134.25 15.414 134.347 14.9318 134.539 14.4848C134.72 14.0662 134.995 13.6946 135.342 13.3983C135.714 13.0844 136.145 12.8465 136.608 12.6981C137.141 12.52 137.7 12.4333 138.261 12.4418C138.949 12.4163 139.629 12.5976 140.212 12.9621C140.809 13.3975 141.297 13.9644 141.64 14.6188L140.067 15.5523C139.855 15.1714 139.571 14.836 139.229 14.5652C138.938 14.3696 138.592 14.273 138.242 14.2897C137.72 14.2623 137.205 14.4165 136.784 14.7259C136.61 14.8613 136.47 15.0356 136.375 15.2349C136.28 15.4342 136.233 15.6529 136.237 15.8737C136.235 16.0464 136.272 16.2174 136.346 16.3734C136.421 16.5294 136.53 16.666 136.666 16.7728C136.994 17.03 137.349 17.2506 137.726 17.4308C138.146 17.6374 138.606 17.844 139.107 18.0544C139.595 18.2531 140.057 18.51 140.484 18.8196C140.907 19.1318 141.266 19.5212 141.544 19.9674C141.845 20.4899 141.993 21.0864 141.972 21.6891" fill="#052A45"/>
<path d="M147.065 12.668H145.102V25.6302H147.065V12.668Z" fill="#052A45"/>
<path d="M154.525 14.5159V25.6302H152.562V14.5159H149.59V12.668H157.498V14.5159H154.525Z" fill="#052A45"/>
<path d="M164.997 20.0329V25.6302H163.038V20.0329L158.799 12.668H161.056L164.006 17.8597L166.982 12.668H169.236L164.997 20.0329Z" fill="#052A45"/>
<path d="M87.2195 34.2799V43.355H85.2568V29.5166L94.703 39.3913V30.3927H96.6657V44.1507L87.2195 34.2799Z" fill="#052A45"/>
<path d="M102.516 30.3936H100.553V43.3519H102.516V30.3936Z" fill="#052A45"/>
<path d="M112.482 43.615C111.57 43.6216 110.667 43.4419 109.827 43.0871C108.607 42.5721 107.568 41.7068 106.84 40.6007C106.113 39.4946 105.73 38.1976 105.741 36.8738C105.739 35.9795 105.928 35.0951 106.295 34.2798C106.995 32.6714 108.279 31.3886 109.888 30.6911C110.71 30.3352 111.597 30.1541 112.493 30.1593C112.815 30.1591 113.137 30.1757 113.458 30.209C113.744 30.2384 114.027 30.2934 114.303 30.3735C114.582 30.4529 114.855 30.5539 115.118 30.6758C115.39 30.7982 115.673 30.9436 115.971 31.1119V33.4075C115.689 33.1687 115.391 32.9489 115.08 32.7494C114.81 32.574 114.523 32.4278 114.223 32.3133C113.937 32.2028 113.641 32.1195 113.339 32.0646C113.014 32.014 112.685 31.9896 112.356 31.9919C111.737 31.9884 111.125 32.1189 110.561 32.3745C110.005 32.6281 109.503 32.9881 109.085 33.4343C108.658 33.8904 108.318 34.4207 108.082 34.9991C107.59 36.227 107.59 37.5971 108.082 38.825C108.317 39.3953 108.66 39.9148 109.092 40.3554C109.529 40.7947 110.049 41.1421 110.623 41.3769C111.228 41.6302 111.879 41.7603 112.536 41.7595C113.121 41.7643 113.701 41.6471 114.238 41.4151C114.868 41.1167 115.453 40.7302 115.975 40.2674V42.6356C114.917 43.2471 113.719 43.5752 112.497 43.5883" fill="#052A45"/>
<path d="M132.09 36.8815C132.095 37.7778 131.913 38.6653 131.554 39.4869C131.209 40.286 130.714 41.0119 130.097 41.6256C129.478 42.2377 128.75 42.7283 127.95 43.0718C127.13 43.4293 126.244 43.6117 125.349 43.6074C124.43 43.6164 123.52 43.4407 122.67 43.0909C121.867 42.7618 121.135 42.2812 120.513 41.6753C119.566 40.7271 118.923 39.5181 118.667 38.2028C118.411 36.8875 118.552 35.5256 119.074 34.2913C119.418 33.4879 119.913 32.758 120.532 32.1411C121.155 31.5284 121.887 31.0368 122.69 30.6911C123.529 30.3343 124.433 30.1534 125.345 30.1593C126.239 30.1558 127.125 30.3368 127.946 30.6911C128.745 31.0388 129.472 31.5304 130.093 32.1411C130.71 32.7545 131.203 33.4805 131.547 34.2798C131.904 35.1005 132.086 35.9865 132.082 36.8815M130.1 36.9044C130.104 36.2375 129.974 35.5767 129.718 34.9608C129.489 34.3852 129.148 33.8607 128.714 33.418C128.281 32.9753 127.763 32.6232 127.193 32.3822C126.597 32.1253 125.955 31.995 125.307 31.9996C124.649 31.9927 123.998 32.123 123.394 32.3822C122.821 32.6266 122.301 32.9801 121.863 33.4228C121.426 33.8713 121.079 34.4 120.842 34.98C120.585 35.5956 120.455 36.2566 120.459 36.9235C120.455 37.5806 120.586 38.2315 120.842 38.8365C121.329 39.9912 122.247 40.9107 123.401 41.3999C123.994 41.6524 124.632 41.7826 125.276 41.7826C125.92 41.7826 126.558 41.6524 127.151 41.3999C127.723 41.1568 128.243 40.8047 128.681 40.363C129.578 39.4423 130.077 38.2054 130.07 36.9197" fill="#052A45"/>
<path d="M142.99 39.4301C142.995 39.9984 142.89 40.5623 142.68 41.0905C142.487 41.5829 142.196 42.0311 141.825 42.4085C141.454 42.7858 141.011 43.0845 140.522 43.2866C140.006 43.5031 139.452 43.6124 138.892 43.608C137.853 43.6545 136.836 43.2982 136.054 42.6132C135.28 41.8581 134.798 40.8541 134.692 39.7782L136.677 39.3535C136.712 40.0169 136.941 40.6553 137.335 41.19C137.527 41.3894 137.761 41.5441 138.019 41.6433C138.278 41.7425 138.555 41.7836 138.831 41.7639C139.126 41.7782 139.421 41.732 139.697 41.628C139.974 41.524 140.226 41.3645 140.438 41.1594C140.64 40.9401 140.796 40.6826 140.898 40.402C140.999 40.1215 141.043 39.8235 141.027 39.5257C141.041 39.1024 140.888 38.6906 140.603 38.3779C140.292 38.055 139.93 37.786 139.531 37.5821C139.107 37.3526 138.644 37.1383 138.154 36.9317C137.673 36.7298 137.211 36.4852 136.773 36.201C136.354 35.9331 135.991 35.5861 135.705 35.1795C135.406 34.7265 135.257 34.1914 135.277 33.6491C135.272 33.1606 135.367 32.6762 135.556 32.2258C135.739 31.8058 136.017 31.4339 136.367 31.1393C136.738 30.828 137.165 30.5916 137.626 30.443C138.159 30.2666 138.718 30.1812 139.279 30.1905C139.967 30.1619 140.648 30.3405 141.234 30.7031C141.829 31.1412 142.317 31.7091 142.661 32.3636L141.085 33.2856C140.873 32.9059 140.591 32.5696 140.254 32.2947C139.958 32.1047 139.611 32.0099 139.26 32.0231C138.738 31.996 138.223 32.1501 137.802 32.4592C137.628 32.5946 137.488 32.769 137.394 32.9684C137.299 33.1678 137.253 33.3865 137.259 33.607C137.255 33.7794 137.292 33.9501 137.366 34.1056C137.441 34.2611 137.551 34.397 137.687 34.5023C138.013 34.7608 138.367 34.9815 138.743 35.1603C139.164 35.3669 139.623 35.5774 140.124 35.784C140.614 35.9827 141.077 36.2396 141.506 36.5492C141.927 36.8611 142.286 37.2507 142.561 37.6969C142.864 38.219 143.012 38.8158 142.99 39.4186" fill="#052A45"/>
<path d="M148.082 30.3936H146.12V43.3519H148.082V30.3936Z" fill="#052A45"/>
<path d="M160.949 43.3553L159.587 40.2066H154.047L152.593 43.3553H150.493L156.905 29.582L163.084 43.3553H160.949ZM156.867 33.9665L154.862 38.3587H158.791L156.867 33.9665Z" fill="#052A45"/>
<path d="M72.1186 35.9064C71.9698 37.3816 71.3251 38.7628 70.2899 39.8242C69.2377 40.9299 68.2889 41.0102 67.826 41.0102C66.7203 41.0102 65.978 40.2183 66.1005 38.7147C66.2758 37.2525 66.9374 35.8916 67.979 34.8505C68.8781 33.9744 69.6509 33.7295 70.3587 33.7295C71.6021 33.7295 72.1875 34.6439 72.1186 35.9026M70.9288 35.3861C70.9288 34.8505 70.8637 34.2383 70.2401 34.2383C69.7734 34.135 68.947 34.862 68.2889 36.1896C67.7605 37.1928 67.4158 38.2825 67.2712 39.4072C67.2176 40.0117 67.4778 40.5129 67.979 40.5129C68.3616 40.5129 68.7901 40.3598 69.341 39.61C70.1715 38.3385 70.7182 36.9031 70.9441 35.4014" fill="#052A45"/>
<path d="M81.4271 29.5741C81.4271 30.1097 80.9603 30.6454 80.6848 30.6454C80.528 30.6454 80.4591 30.4923 80.4438 30.3661C80.3902 29.314 79.8393 29.027 79.3917 29.027C78.944 29.027 78.462 29.3522 78.045 29.9567C77.2339 31.1274 76.8972 32.5086 76.4228 33.9778H78.5806C78.6118 34.0305 78.6322 34.0891 78.6404 34.1499C78.6486 34.2106 78.6446 34.2724 78.6286 34.3316C78.6125 34.3909 78.5848 34.4462 78.547 34.4945C78.5091 34.5428 78.462 34.5831 78.4084 34.6128H76.2621C76.1396 34.9074 76.0172 35.4392 75.8795 35.9787C75.3285 37.9108 74.8618 39.8046 74.2573 41.7176C73.7905 43.2862 73.2587 44.2197 72.8953 44.5488C72.3817 45.0898 71.6744 45.4049 70.9287 45.4249C70.6654 45.4494 70.4026 45.3723 70.1943 45.2095C69.9859 45.0466 69.8476 44.8102 69.8077 44.5488C69.7992 44.4245 69.8254 44.3003 69.8835 44.1901C69.9416 44.08 70.0293 43.9882 70.1368 43.9251C70.3931 43.7147 70.4964 43.8563 70.638 44.0782C70.7476 44.2589 70.8983 44.4112 71.0777 44.5229C71.2572 44.6345 71.4604 44.7024 71.671 44.7209C71.9962 44.7209 72.3941 44.4608 72.7575 43.2862C73.6375 40.3862 74.2037 37.4555 75.034 34.6282H73.6031C73.4118 34.4713 73.4998 34.1461 73.7217 33.9931H75.2061C75.6729 32.4397 76.1052 31.093 77.1191 29.884C77.4604 29.4401 77.899 29.0803 78.401 28.8323C78.9031 28.5842 79.4553 28.4545 80.0153 28.4531C80.7575 28.4531 81.4309 28.9008 81.4309 29.6009" fill="#052A45"/>
</svg>
