<svg width="70" height="70" viewBox="0 0 70 70" fill="none" xmlns="http://www.w3.org/2000/svg">
<rect width="70" height="70" rx="35" fill="#FC8E76"/>
<path d="M43.7814 39.2335C43.7814 36.3497 46.1291 34.0035 49.0151 34.0035C49.8091 34.0035 50.5618 34.1819 51.2367 34.4994V21.2302C51.2367 20.5508 50.6859 20 50.0064 20H19.7374C19.0579 20 18.5071 20.5508 18.5071 21.2302V34.4992C19.1817 34.1816 19.9347 34.0032 20.7285 34.0032C23.6144 34.0032 25.9621 36.3497 25.9621 39.2335C25.9621 39.7185 25.8947 40.187 25.7707 40.6327H29.8297C29.7059 40.187 29.6383 39.7185 29.6383 39.2335C29.6383 36.3497 31.986 34.0032 34.8719 34.0032C37.7578 34.0032 40.1056 36.3497 40.1056 39.2335C40.1056 39.7185 40.0379 40.187 39.9138 40.6327H43.9731C43.8491 40.187 43.7814 39.7185 43.7814 39.2335ZM39.8792 27.0854C39.8792 27.7646 39.3287 28.3157 38.649 28.3157H31.0946C30.4151 28.3157 29.8643 27.7646 29.8643 27.0854C29.8643 26.406 30.4151 25.8552 31.0946 25.8552H38.649C39.3287 25.8552 39.8792 26.406 39.8792 27.0854ZM25.0182 32.7445C24.3385 32.7445 23.7879 32.1935 23.7879 31.5143C23.7879 30.8348 24.3385 30.2841 25.0182 30.2841H44.7259C45.4051 30.2841 45.9561 30.8348 45.9561 31.5143C45.9561 32.1935 45.4051 32.7445 44.7259 32.7445H25.0182Z" fill="white"/>
<path d="M20.7284 44.464C19.4146 44.464 18.2136 43.9768 17.2935 43.1748C15.2944 43.9647 13.8757 45.9136 13.8757 48.1896L13.8762 48.8749C13.8768 49.2009 14.0064 49.5141 14.2374 49.7448C14.4683 49.9747 14.7807 50.1039 15.1065 50.1039H15.1083L26.3529 50.0885C26.6795 50.0883 26.9929 49.9575 27.2231 49.7261C27.4535 49.4944 27.5827 49.1809 27.5814 48.8542L27.5791 48.1886C27.5791 45.9144 26.1615 43.9657 24.1629 43.1753C23.2427 43.9768 22.042 44.464 20.7284 44.464Z" fill="white"/>
<path d="M34.8719 44.464C33.5581 44.464 32.3568 43.9768 31.4367 43.1748C29.4375 43.9647 28.0189 45.9136 28.0189 48.1896L28.0197 48.8749C28.0197 49.2009 28.1496 49.5141 28.3808 49.7448C28.6117 49.9747 28.9242 50.1039 29.2499 50.1039H29.251L40.4961 50.0885C40.8229 50.0883 41.1359 49.9575 41.3665 49.7261C41.5969 49.4944 41.7256 49.1809 41.7246 48.8542L41.7225 48.1886C41.7225 45.9144 40.3044 43.9657 38.3063 43.1753C37.3862 43.9768 36.1854 44.464 34.8719 44.464Z" fill="white"/>
<path d="M55.8657 48.1886C55.8657 45.9144 54.4476 43.9657 52.4495 43.1753C51.5296 43.977 50.3286 44.464 49.015 44.464C47.7012 44.464 46.5002 43.9768 45.5801 43.1748C43.581 43.9647 42.1623 45.9139 42.1623 48.1896L42.1629 48.8749C42.1634 49.2015 42.2931 49.5141 42.5242 49.7448C42.7549 49.9747 43.0673 50.1041 43.3931 50.1041H43.3949L54.6396 50.0885C54.9663 50.0883 55.2793 49.9575 55.5097 49.7261C55.7404 49.4944 55.8693 49.1809 55.868 48.8542L55.8657 48.1886Z" fill="white"/>
<path d="M37.6648 39.2333C37.6648 40.776 36.4146 42.0265 34.8719 42.0265C33.3292 42.0265 32.0787 40.776 32.0787 39.2333C32.0787 37.6909 33.3292 36.4404 34.8719 36.4404C36.4146 36.4404 37.6648 37.6909 37.6648 39.2333Z" fill="white"/>
<path d="M51.7703 39.2333C51.7703 40.776 50.5198 42.0265 48.9776 42.0265C47.435 42.0265 46.1845 40.776 46.1845 39.2333C46.1845 37.6909 47.435 36.4404 48.9776 36.4404C50.5198 36.4404 51.7703 37.6909 51.7703 39.2333Z" fill="white"/>
<path d="M23.5217 39.2333C23.5217 40.776 22.2712 42.0265 20.7285 42.0265C19.1861 42.0265 17.9356 40.776 17.9356 39.2333C17.9356 37.6909 19.1861 36.4404 20.7285 36.4404C22.2712 36.4404 23.5217 37.6909 23.5217 39.2333Z" fill="white"/>
</svg>
