<svg width="70" height="70" viewBox="0 0 70 70" fill="none" xmlns="http://www.w3.org/2000/svg">
<rect width="70" height="70" rx="35" fill="#FC8E76"/>
<g clip-path="url(#clip0_100_164)">
<path d="M20.3906 30.0195C20.9407 30.0195 21.3867 29.5736 21.3867 29.0235V23.5763L34.8218 26.0191C34.9396 26.0406 35.0604 26.0406 35.1782 26.0191L49.7876 23.3629C50.8781 23.1646 50.8781 21.6011 49.7876 21.4028L35.1782 18.7466C35.0604 18.7251 34.9397 18.7251 34.8218 18.7466L20.2125 21.4028C19.6946 21.497 19.4232 21.899 19.3971 22.3164H19.3945V22.3824V22.3833V29.0235C19.3945 29.5736 19.8405 30.0195 20.3906 30.0195Z" fill="white"/>
<path d="M51.0039 49.2773H50.0078V48.6133H22.9805C22.4304 48.6133 21.9844 48.1673 21.9844 47.6172C21.9844 47.0671 22.4304 46.6211 22.9805 46.6211H50.0078V45.957H51.0039C51.554 45.957 52 45.511 52 44.9609C52 44.4108 51.554 43.9648 51.0039 43.9648H19.9922C18.8919 43.9648 18 44.8567 18 45.957V49.2773C18 50.3776 18.8919 51.2695 19.9922 51.2695H51.0039C51.554 51.2695 52 50.8235 52 50.2734C52 49.7233 51.554 49.2773 51.0039 49.2773Z" fill="white"/>
<path d="M35.5346 27.9788C35.3589 28.0107 35.1789 28.027 35 28.027C34.8211 28.027 34.6411 28.0107 34.4652 27.9787L25.3711 26.3252V32.6754H44.6289V26.3252L35.5346 27.9788Z" fill="white"/>
<path d="M25.7031 37.3242H47.2852V36.6602H48.2812C48.8314 36.6602 49.2773 36.2142 49.2773 35.6641C49.2773 35.114 48.8314 34.668 48.2812 34.668H22.7148C21.6146 34.668 20.7227 35.5599 20.7227 36.6602V39.9805C20.7227 41.0808 21.6146 41.9727 22.7148 41.9727H48.2812C48.8314 41.9727 49.2773 41.5267 49.2773 40.9766C49.2773 40.4265 48.8314 39.9805 48.2812 39.9805H47.2852V39.3164H25.7031C25.153 39.3164 24.707 38.8704 24.707 38.3203C24.707 37.7702 25.153 37.3242 25.7031 37.3242Z" fill="white"/>
</g>
<defs>
<clipPath id="clip0_100_164">
<rect width="34" height="34" fill="white" transform="translate(18 18)"/>
</clipPath>
</defs>
</svg>
