<svg width="78" height="78" viewBox="0 0 78 78" fill="none" xmlns="http://www.w3.org/2000/svg">
<rect width="78" height="78" rx="10" fill="#BB1621"/>
<g clip-path="url(#clip0_100_80)">
<path d="M23.7304 22.1924C23.7292 22.1924 23.7279 22.1924 23.7267 22.1924C23.3105 22.1924 22.9191 22.3546 22.6236 22.6494C22.3247 22.9475 22.1602 23.3444 22.1602 23.7669V47.3766C22.1602 48.2424 22.8673 48.9485 23.7366 48.9507C27.4015 48.9594 33.5417 49.7233 37.7776 54.156V29.4478C37.7776 29.1543 37.7026 28.8786 37.5611 28.6505C34.0845 23.0516 27.4036 22.201 23.7304 22.1924Z" fill="white"/>
<path d="M55.8399 47.3768V23.7669C55.8399 23.3444 55.6753 22.9475 55.3765 22.6494C55.0809 22.3546 54.6892 22.1924 54.2735 22.1924C54.2722 22.1924 54.2709 22.1924 54.2697 22.1924C50.5966 22.2011 43.9157 23.0518 40.439 28.6506C40.2975 28.8788 40.2227 29.1545 40.2227 29.448V54.156C44.4585 49.7233 50.5987 48.9594 54.2636 48.9507C55.1328 48.9485 55.8399 48.2424 55.8399 47.3768Z" fill="white"/>
<path d="M59.4262 27.6367H58.2846V47.3762C58.2846 49.5867 56.4835 51.3892 54.2696 51.3947C51.161 51.4021 46.0354 52.01 42.4053 55.4457C48.6835 53.9085 55.3019 54.9078 59.0738 55.7673C59.5447 55.8746 60.0314 55.7638 60.4087 55.463C60.7847 55.163 61.0004 54.7146 61.0004 54.2333V29.2109C61.0006 28.3429 60.2942 27.6367 59.4262 27.6367Z" fill="white"/>
<path d="M19.7159 47.3762V27.6367H18.5742C17.7064 27.6367 17 28.3429 17 29.2109V54.2328C17 54.7143 17.2157 55.1626 17.5917 55.4626C17.9687 55.7632 18.455 55.8744 18.9267 55.7669C22.6985 54.9072 29.3171 53.9081 35.595 55.4453C31.9651 52.0097 26.8394 51.402 23.7308 51.3946C21.5171 51.3892 19.7159 49.5867 19.7159 47.3762Z" fill="white"/>
</g>
<defs>
<clipPath id="clip0_100_80">
<rect width="44" height="44" fill="white" transform="translate(17 17)"/>
</clipPath>
</defs>
</svg>
