<svg width="78" height="78" viewBox="0 0 78 78" fill="none" xmlns="http://www.w3.org/2000/svg">
<rect width="78" height="78" rx="10" fill="#BB1621"/>
<path d="M56.9494 19.75H37.6185C35.3814 19.75 33.5684 21.5634 33.5684 23.8001V33.3221C34.5902 33.83 35.6943 34.3792 36.7249 34.8914L38.3016 31.7366C39.2563 29.8289 41.5837 29.0537 43.4908 30.0068C45.4019 30.9632 46.1763 33.2841 45.2196 35.1956L42.4088 40.8185C42.4834 41.5627 42.4172 42.313 42.2074 43.0391H44.0631L39.1687 56.4977C38.8784 57.296 39.4396 58.2275 40.3806 58.2275C40.9066 58.2275 41.4014 57.9029 41.5914 57.3785L46.8061 43.0391H47.7094L52.9771 57.3829C53.1688 57.9046 53.6623 58.2275 54.188 58.2275C55.0672 58.2275 55.7117 57.3493 55.3972 56.4943L50.4557 43.0391H56.9494C59.1861 43.0391 60.9995 41.2256 60.9995 38.9889V23.8001C60.9995 21.5634 59.1861 19.75 56.9494 19.75V19.75ZM54.1873 37.5166H48.4037C47.692 37.5166 47.1146 36.9392 47.1146 36.2275C47.1146 35.5152 47.692 34.9384 48.4037 34.9384H54.1873C54.8997 34.9384 55.4764 35.5152 55.4764 36.2275C55.4764 36.9392 54.8997 37.5166 54.1873 37.5166ZM54.1873 32.6836H48.4037C47.692 32.6836 47.1146 32.1069 47.1146 31.3945C47.1146 30.6829 47.692 30.1055 48.4037 30.1055H54.1873C54.8997 30.1055 55.4764 30.6829 55.4764 31.3945C55.4764 32.1069 54.8997 32.6836 54.1873 32.6836ZM54.1873 27.8513H40.3806C39.6682 27.8513 39.0915 27.2739 39.0915 26.5622C39.0915 25.8506 39.6682 25.2732 40.3806 25.2732H54.1873C54.8997 25.2732 55.4764 25.8506 55.4764 26.5622C55.4764 27.2739 54.8997 27.8513 54.1873 27.8513Z" fill="white"/>
<path d="M39.6808 42.4862C39.9138 41.8037 39.9121 41.0907 39.7154 40.4401L42.9145 34.0425C43.2328 33.4057 42.9749 32.6312 42.3381 32.313C41.7017 31.9944 40.9272 32.2526 40.6086 32.8894L37.8801 38.3457C36.2493 37.5337 33.7716 36.3017 31.7755 35.3091C29.9185 34.3856 28.5932 33.5574 26.3319 33.5574H25.1929C26.9536 33.5574 28.525 32.747 29.5536 31.4788C30.3384 30.5137 30.8077 29.2837 30.8077 27.9433C30.8077 24.8418 28.2941 22.3281 25.1923 22.3281C22.0918 22.3281 19.5781 24.8418 19.5781 27.9433C19.5781 29.4327 20.1582 30.7863 21.1045 31.7906C22.1277 32.8786 23.5809 33.5574 25.1919 33.5577C23.0321 33.5577 20.9206 34.4329 19.4016 35.9559C17.853 37.5005 17 39.5583 17 41.7503V45.8925C17 47.6757 18.1578 49.193 19.7614 49.7328V56.9381C19.7614 57.6501 20.3385 58.2272 21.0505 58.2272H29.3347C30.0467 58.2272 30.6238 57.6501 30.6238 56.9381V42.4546C31.846 43.0656 33.4517 43.8682 34.7508 44.5181C35.6615 44.9733 36.7257 45.0143 37.6747 44.6282C38.621 44.2388 39.3505 43.4637 39.6758 42.5013C39.6774 42.4962 39.6791 42.4912 39.6808 42.4862Z" fill="white"/>
</svg>
