<svg width="70" height="70" viewBox="0 0 70 70" fill="none" xmlns="http://www.w3.org/2000/svg">
<rect width="70" height="70" rx="35" fill="#FC8E76"/>
<g clip-path="url(#clip0_100_174)">
<path d="M24.4128 34.2574H16.7852L21.9768 30.5944H27.8763L24.4128 34.2574ZM45.5871 34.2574H53.2147L48.0231 30.5944H42.1236L45.5871 34.2574ZM30.899 54H34.2151V43.0835H30.899V54ZM35.4409 54H38.7569V43.0835H35.4409V54ZM53.8662 35.4832V54H39.9828V42.4706V41.8577H39.3699H35.4409H34.2151H30.2861H29.6732V42.4706V54H16.1338V35.4832H24.9408L29.9704 30.1639L34.3871 25.4929V16H35.6129H42.3331L42.0174 16.2056L38.47 18.5155L42.0174 20.8255L42.3331 21.031H35.6129V25.4928L40.0296 30.1638L45.0591 35.4831H53.8662V35.4832ZM22.0032 47.9209H18.5095V51.4146H22.0032V47.9209ZM22.0032 42.4706H18.5095V45.9643H22.0032V42.4706ZM27.5932 47.9209H24.0995V51.4146H27.5932V47.9209ZM27.5932 42.4706H24.0995V45.9643H27.5932V42.4706ZM37.8648 35.9024C37.8648 34.3202 36.5822 33.0375 35 33.0375C33.4178 33.0375 32.1351 34.3202 32.1351 35.9024C32.1351 37.4845 33.4178 38.7673 35 38.7673C36.5822 38.7673 37.8648 37.4846 37.8648 35.9024ZM45.9004 47.9209H42.4067V51.4146H45.9004V47.9209ZM45.9004 42.4706H42.4067V45.9643H45.9004V42.4706ZM51.4904 47.9209H47.9967V51.4146H51.4904V47.9209ZM51.4904 42.4706H47.9967V45.9643H51.4904V42.4706Z" fill="white"/>
</g>
<defs>
<clipPath id="clip0_100_174">
<rect width="38" height="38" fill="white" transform="translate(16 16)"/>
</clipPath>
</defs>
</svg>
